# xmcd CD database file
#
# Track frame offsets:
#	150
#	20295
#	34187
#	53395
#	70345
#	85040
#	103527
#	124267
#	146075
#	165285
#	180440
#	199452
#	216570
#
# Disc length: 3012 seconds
#
# Revision: 4
# Processed by: cddbd v1.5PL3 Copyright (c) Steve Scherf et al.
# Submitted via: CDex 1.50Beta7
#
DISCID=b10bc20d
DTITLE=村下孝蔵 - 純情可憐
DYEAR=2001
DGENRE=Pop
TTITLE0=ひとりぽっちの雨の中
TTITLE1=街
TTITLE2=夜行列車
TTITLE3=今夜がよければ
TTITLE4=忘れられずに
TTITLE5=Lonely Night
TTITLE6=屋台酒
TTITLE7=すみれ白書
TTITLE8=春雨
TTITLE9=ゆうこ
TTITLE10=踊り子
TTITLE11=初恋
TTITLE12=純情可憐 (Instrumental)
EXTD=YEAR: 2001
EXTT0=
EXTT1=
EXTT2=
EXTT3=
EXTT4=
EXTT5=
EXTT6=
EXTT7=
EXTT8=
EXTT9=
EXTT10=
EXTT11=
EXTT12=
PLAYORDER=
